<svg width="40" height="40" viewBox="0 0 24 24" fill="none" xmlns="http://www.w3.org/2000/svg">
<path d="M13.0099 13.0162C13.0099 13.5685 12.5621 14.0162 12.0099 14.0162C11.4576 14.0162 11.0099 13.5685 11.0099 13.0162V8.98338L9.91459 9.82879C9.53204 10.1241 8.98256 10.0533 8.68728 9.67077C8.392 9.28822 8.46275 8.73874 8.8453 8.44346L12.0109 6.00001L15.1659 8.44445C15.5479 8.74043 15.6176 9.29004 15.3216 9.67204C15.0256 10.054 14.476 10.1238 14.094 9.82781L13.0099 8.98779V13.0162Z" fill="#fff"/>
<path fill-rule="evenodd" clip-rule="evenodd" d="M13.6508 2.49502C12.6492 1.83499 11.3508 1.83499 10.3492 2.49502L3.34922 7.10803C2.50694 7.66309 2 8.60428 2 9.61301V16.9972C2 18.654 3.34315 19.9971 5 19.9971H19C20.6569 19.9971 22 18.654 22 16.9971V9.613C22 8.60428 21.4931 7.66309 20.6508 7.10803L13.6508 2.49502ZM4.5875 8.63L12 3.99719L19.4125 8.63C19.778 8.85843 20 9.25901 20 9.69V10.307C20 10.7381 19.7779 11.1388 19.4122 11.3672L12 15.9972L4.58777 11.3672C4.22214 11.1388 4 10.7381 4 10.307V9.69C4 9.25901 4.22202 8.85843 4.5875 8.63Z" fill="#fff"/>
</svg>
