<svg width="19" height="19" viewBox="0 0 19 19" fill="none" xmlns="http://www.w3.org/2000/svg">
<path d="M12 0C10.3431 0 9 1.34315 9 3V11L11.5 9H16C17.6569 9 19 7.65685 19 6V3C19 1.34315 17.6569 0 16 0H12Z" fill="#4E4E4E"/>
<path d="M14.27 18.9979C15.0093 19.0312 15.6838 18.665 16.1645 18.1016L17.7555 16.2369C18.1375 15.7892 18.0632 15.1117 17.5934 14.7577L14.4603 12.3974C14.1205 12.1414 13.6553 12.1314 13.3049 12.3727L9.81916 14.7722L4.22109 9.16524L6.71989 5.83471C6.98572 5.4804 6.9844 4.99241 6.71667 4.63955L4.282 1.43066C3.90351 0.931817 3.18412 0.854345 2.70841 1.26119L0.897819 2.8097C0.334711 3.29129 -0.0311763 3.96719 0.00209479 4.70808C0.0878573 6.61786 0.767094 10.6119 4.57097 14.4218C8.37531 18.2321 12.3635 18.9121 14.27 18.9979Z" fill="#4E4E4E"/>
</svg>
